<?xml version="1.0" encoding="UTF-8"?>
<svg id="Layer_1" xmlns="http://www.w3.org/2000/svg" version="1.1" viewBox="0 0 128 128">
  <!-- Generator: Adobe Illustrator 29.8.2, SVG Export Plug-In . SVG Version: 2.1.1 Build 3)  -->
  <defs>
    <style>
      .st0 {
        fill: #f58220;
      }

      .st1 {
        fill: #e32228;
      }

      .st2 {
        fill: #fee600;
      }

      .st3 {
        fill: #fff;
      }

      .st4 {
        fill: #23222c;
      }

      .st5 {
        fill: #f0523c;
      }
    </style>
  </defs>
  <rect class="st4" width="128" height="128" rx="20.2593727" ry="20.2593727"/>
  <polygon class="st3" points="101.6327829 65.2192555 101.6327829 65.2336859 70.467476 65.2336859 70.467476 58.8858491 112.5114427 58.8858491 112.5114427 41.9951574 59.0670182 41.9951574 52.7320039 48.3285697 52.7320039 75.7925733 59.0654045 82.1243952 96.2243076 82.1243952 96.2243076 88.4433653 86.7153661 88.4433653 103.1428058 105.3340746 107.6263675 105.3340746 114.8750926 98.9990602 114.8750926 71.5526795 107.6263675 65.2192555 101.6327829 65.2192555"/>
  <polygon class="st3" points="43.2843097 88.449949 43.2843097 63.1082896 48.9733241 63.1082896 48.9733241 41.9953153 43.2843097 41.9953153 43.2843097 20.0407705 25.5488375 20.0407705 25.5488375 41.9953153 10.7243939 41.9953153 10.7243939 58.9469269 14.8857566 63.1082896 25.5488375 63.1082896 25.5488375 98.9992122 31.8838519 105.3342266 43.9062668 105.3342266 43.9062668 88.449949 43.2843097 88.449949"/>
  <polyline class="st3" points="43.4511772 105.3335834 66.7057382 105.3335834 49.9272622 88.4428859 41.5981284 88.4428859"/>
  <polygon class="st1" points="78.569945 105.3335834 68.8959076 105.3335834 52.2777153 88.4428859 61.9517528 88.4428859 78.569945 105.3335834"/>
  <polygon class="st0" points="89.9732912 105.3335834 80.2992421 105.3335834 63.6810616 88.4428859 73.355099 88.4428859 89.9732912 105.3335834"/>
  <polygon class="st2" points="101.3766375 105.3335834 91.7025884 105.3335834 75.0844078 88.4428859 84.7584569 88.4428859 101.3766375 105.3335834"/>
  <g>
    <path class="st5" d="M-176.6984559,132.2217731l8.261918,14.0728389c1.0079253,1.7168188,2.9669404,2.6431039,4.9319231,2.323289,2.3293345-.3791152,4.6611858-.8626257,6.9926869-1.4538524,2.3297237-.5907986,4.6112521-1.2772096,6.840745-2.0541863,1.8797879-.6551197,3.1606948-2.4027238,3.2288948-4.3922388l.559196-16.3112833s-30.8153508,7.815446-30.8153638,7.815433Z"/>
    <path class="st5" d="M-215.4261624,120.807567l-1.101196,16.2816267c-.1343438,1.9862977.9624932,3.8551751,2.7661869,4.697848,2.1381488.9989089,4.3371936,1.9130122,6.5966157,2.7378859,2.2577226.824251,4.5294691,1.5423295,6.8092526,2.1562723,1.9222037.5176299,3.9649866-.2047557,5.1420692-1.8101219l9.6504958-13.1620179s-29.8634372-10.9014801-29.8634242-10.9014931Z"/>
    <path class="st5" d="M-240.9944682,89.5616363l-10.0816108,12.8321748c-1.2299191,1.5654737-1.3764512,3.7274801-.3608555,5.4397972,1.2039144,2.0298097,2.505919,4.0238265,3.9080733,5.9781453,1.401097,1.9528528,2.8735951,3.8258817,4.4114002,5.6173871,1.296598,1.5105063,3.3913645,2.0643833,5.2682626,1.4010256l15.3880372-5.4386426-18.533307-25.8298873Z"/>
    <path class="st5" d="M-244.5175299,49.3389525l-15.5584465,4.9232765c-1.8980703.6006193-3.2370452,2.304413-3.3624959,4.291288-.1487116,2.3552874-.1962177,4.7362746-.1386119,7.1408795.057562,2.4027887.2190813,4.7798515.4804861,7.1263236.220403,1.9784489,1.6391678,3.6161054,3.5636142,4.1253027l15.7778878,4.1747694s-.762437-31.7818462-.7624338-31.7818397Z"/>
    <path class="st5" d="M-224.7711528,14.1229303l-15.6283687-4.6965832c-1.9066002-.5729638-3.9726959.0805051-5.1955965,1.6514664-1.4496556,1.8622611-2.8301641,3.8027635-4.1371277,5.8219871-1.3059776,2.0176993-2.5115688,4.0727094-3.6174092,6.158719-.932389,1.7588195-.6826779,3.9111414.6205299,5.4159395l10.6845718,12.3373582s17.2733939-26.688887,17.2734003-26.688887Z"/>
    <path class="st5" d="M-188.6183113-3.8507818l-10.2670851-12.684274c-1.2525411-1.5474312-3.327744-2.1713844-5.2231062-1.5622758-2.2468121.7220548-4.4805667,1.5477037-6.6978973,2.4798267-2.215657.9314192-4.3693931,1.9502095-6.4581724,3.050812-1.7611546.9279716-2.7672767,2.8469677-2.5382027,4.8244176l1.8781273,16.2124407s29.3063299-12.3209439,29.3063364-12.3209472Z"/>
    <path class="st5" d="M-148.6220678,1.6645777l-1.3377554-16.2638923c-.1632026-1.9841312-1.5263206-3.6686662-3.4354798-4.2330936-2.2631454-.6690853-4.5738634-1.2452177-6.9309994-1.7241308-2.3553587-.4785514-4.7087455-.8500255-7.0545819-1.1173184-1.9778781-.2253668-3.8901768.7934121-4.8148532,2.5563019l-7.5810076,14.4533326s31.1546643,6.3288071,31.1546773,6.3288006Z"/>
    <path class="st5" d="M-118.6826792,28.751897l8.0564747-14.1914462c.9828611-1.7313033.8055177-3.891007-.4539316-5.4328176-1.4929925-1.8277006-3.0776535-3.6053992-4.755423-5.3289154-1.6765111-1.7222124-3.4117129-3.3548579-5.1993523-4.897155-1.5072371-1.3003862-3.6611742-1.5358721-5.4182358-.600188l-14.4055751,7.6713658s22.176043,22.7791499,22.176043,22.7791564Z"/>
  </g>
  <path class="st5" d="M-152.0479215,120.8259889c-2.9335604,1.3099669-5.9706987,2.40214-9.0902426,3.2514163-7.3487877,2.0012298-15.1402203,2.6825942-23.0371054,1.8330455-2.6447579-.2828932-5.2985193-.7373956-7.9540385-1.3718489s-5.2304814-1.4291385-7.7175179-2.3723406c-7.427963-2.8117682-14.0699394-6.9415077-19.7205573-12.0485039-4.0167301-3.6296494-7.5315279-7.7527336-10.4685911-12.2488098-4.2249854-6.4616427-7.2589841-13.6932437-8.8786111-21.3349009-1.1035571-5.1998323-1.5528313-10.5923941-1.2765382-16.0583582.1888668-3.8065711.7327025-7.6480076,1.6500199-11.4874657s2.1687136-7.511893,3.7207989-10.9927594c2.2243718-5.0005902,5.0597511-9.6058681,8.3970628-13.7447407,4.8988999-6.084227,10.8740938-11.1634281,17.5637271-15.0174032,4.6527533-2.6852537,9.6517153-4.7741985,14.8724409-6.1944536,7.3494104-2.0035812,15.1432301-2.684378,23.0423531-1.8342261,2.6448942.2828607,5.3009063.7379242,7.9540385,1.3718165,2.6556489.6344534,5.2281008,1.4285677,7.7151373,2.3717763,7.4280928,2.8117682,14.0724497,6.942072,19.7224384,12.0514423,4.014849,3.6267369,7.5296598,7.7497887,10.466217,12.248226.9337057,1.427945,1.8057499,2.895536,2.6207511,4.39484h9.2399531c-1.4525292-3.1360004-3.1274316-6.1628704-5.0163526-9.0516538-3.3195514-5.0852013-7.2928863-9.7460563-11.8313069-13.8458342-6.3870729-5.7757863-13.8980772-10.4448274-22.29502-13.6233539-2.811353-1.0662527-5.7195379-1.9639319-8.7213891-2.6811574-2.9993604-.7165671-6.0017046-1.2309797-8.9915556-1.5507686-8.9295178-.9610013-17.7399548-.1913998-26.0479665,2.0735002-5.9015192,1.6054927-11.5526365,3.9669196-16.8122622,7.00242-7.5621706,4.3566923-14.3167217,10.0983949-19.8547648,16.9762042-3.7725814,4.6787321-6.9778099,9.8847007-9.4922392,15.5375045-1.7545837,3.9349018-3.169082,8.0863389-4.2060964,12.4266137-1.0368912,4.3402748-1.6516448,8.6827744-1.8652774,12.9858356-.3123196,6.1789441.1954961,12.2748599,1.4431398,18.1529301,1.8308822,8.6383737,5.2605014,16.8132546,10.0367009,24.1177389,3.3200541,5.0825158,7.2933825,9.7433643,11.8339307,13.8464569,6.3875723,5.7731301,13.8959626,10.441516,22.2928924,13.620036,2.8114893,1.0662527,5.7221585,1.9645936,8.7241394,2.6818029,3.0018512.7171834,6.0017046,1.2309732,8.9915556,1.5507361,8.9267675.9604045,17.7344542.1901479,26.0418432-2.0720893,5.9050284-1.6075197,11.556016-3.9689499,16.8156417-7.0044535,2.1060401-1.2126161,4.1466825-2.5367497,6.1186578-3.95922h-15.9860068Z"/>
</svg>