<?xml version="1.0" encoding="UTF-8"?>
<svg id="Layer_1" xmlns="http://www.w3.org/2000/svg" version="1.1" viewBox="0 0 520.2791138 135.7292786">
  <!-- Generator: Adobe Illustrator 29.8.2, SVG Export Plug-In . SVG Version: 2.1.1 Build 3)  -->
  <defs>
    <style>
      .st0 {
        fill: #f58220;
      }

      .st1 {
        fill: #e31f26;
      }

      .st2 {
        fill: #fff;
      }

      .st3 {
        fill: #ffe600;
      }

      .st4 {
        fill: #f0503a;
      }
    </style>
  </defs>
  <polygon class="st2" points="110.1130981 71.6059723 110.1130981 71.6185989 82.8425827 71.6185989 82.8425827 66.064064 119.632225 66.064064 119.632225 51.2842407 72.8668671 51.2842407 67.323555 56.826149 67.323555 80.8579178 72.8654633 86.3984299 105.3805237 86.3984299 105.3805237 91.9277115 97.0599442 91.9277115 111.4344101 106.7075424 115.3576431 106.7075424 121.7004776 101.1642303 121.7004776 77.1478882 115.3576431 71.6059723 110.1130981 71.6059723"/>
  <polygon class="st2" points="59.0565643 91.9334641 59.0565643 69.758812 64.0346069 69.758812 64.0346069 51.2843781 59.0565643 51.2843781 59.0565643 32.0735435 43.5375366 32.0735435 43.5375366 51.2843781 30.5657349 51.2843781 30.5657349 66.1175079 34.2070427 69.758812 43.5375366 69.758812 43.5375366 101.1643677 49.0808487 106.7076797 59.6007957 106.7076797 59.6007957 91.9334641 59.0565643 91.9334641"/>
  <polyline class="st2" points="59.2025795 106.7071152 79.5509644 106.7071152 64.8693314 91.9272919 57.5811081 91.9272919"/>
  <polygon class="st1" points="89.9324722 106.7071152 81.4674225 106.7071152 66.9260406 91.9272919 75.391098 91.9272919 89.9324722 106.7071152"/>
  <polygon class="st0" points="99.9107132 106.7071152 91.4456558 106.7071152 76.9042892 91.9272919 85.369339 91.9272919 99.9107132 106.7071152"/>
  <polygon class="st3" points="109.8889618 106.7071152 101.4238968 106.7071152 86.8825302 91.9272919 95.3475876 91.9272919 109.8889618 106.7071152"/>
  <g>
    <path class="st2" d="M143.6272583,25.1854477h-7.3662109v-4.6083984h20.1020508v4.6083984h-7.4018555v18.9770508h-5.3339844v-18.9770508Z"/>
    <path class="st2" d="M158.4299927,20.5770493h5.3339844v9.6879883h9.796875v-9.6879883h5.2978516v23.5854492h-5.2978516v-9.3618164h-9.796875v9.3618164h-5.3339844v-23.5854492Z"/>
    <path class="st2" d="M182.2683716,20.5770493h17.6708984v4.4267578h-12.3369141v5.0800781h8.8173828v4.3540039h-8.8173828v5.2978516h12.3369141v4.4267578h-17.6708984v-23.5854492Z"/>
  </g>
  <g>
    <path class="st2" d="M154.1282349,62.0902328h-17.3740234v-10.8696289h47.4150391v10.8696289h-17.4599609v44.7617188h-12.5810547v-44.7617188Z"/>
    <path class="st2" d="M188.8777466,96.9237289v-36.8876953c0-6.1621094,3.5087891-8.8154297,8.9008789-8.8154297h30.6401367c6.6757812,0,8.7294922,4.1938477,8.7294922,11.1264648v33.9775391c0,5.5634766-3.6801758,10.5273438-10.4414062,10.5273438h-27.6445312c-5.5629883,0-10.1845703-2.9956055-10.1845703-9.9282227ZM224.8240356,95.8114243v-33.4643555h-23.6220703v33.4643555h23.6220703Z"/>
    <path class="st2" d="M256.5784302,106.8519516v-21.9956055l-19.1713867-33.6357422h13.3515625l12.1533203,22.8515625h.1708984l12.324707-22.8515625h13.3515625l-19.5996094,33.6357422v21.9956055h-12.5810547Z"/>
    <path class="st2" d="M359.7991333,96.4959946c0,6.2475586-3.6801758,10.355957-10.4414062,10.355957h-26.1040039c-5.4775391,0-10.0991211-2.9956055-10.0991211-9.9282227v-9.3286133h12.3242188v8.7294922h21.9956055v-8.9863281l-28.5-8.2163086c-4.4506836-1.3696289-5.8198242-3.7661133-5.8198242-8.7299805v-10.5268555c0-6.1625977,3.5087891-8.6445312,9.2431641-8.6445312h27.7299805c7.7026367,0,9.6713867,4.0224609,9.6713867,11.1264648v7.1889648h-12.324707v-7.8735352h-21.9956055v8.0449219l28.6713867,8.2163086c4.5361328,1.3691406,5.6489258,3.5947266,5.6489258,9.1577148v9.4145508Z"/>
    <path class="st2" d="M365.7063599,51.2206039h12.581543v22.8515625h23.1079102v-22.8515625h12.4956055v55.6313477h-12.4956055v-22.081543h-23.1079102v22.081543h-12.581543v-55.6313477Z"/>
    <path class="st2" d="M420.0564575,96.9237289v-36.8876953c0-6.1621094,3.5087891-8.8154297,8.9003906-8.8154297h30.640625c6.6757812,0,8.7294922,4.1938477,8.7294922,11.1264648v33.9775391c0,5.5634766-3.6796875,10.5273438-10.4414062,10.5273438h-27.6445312c-5.5634766,0-10.1845703-2.9956055-10.1845703-9.9282227ZM456.0027466,95.8114243v-33.4643555h-23.6220703v33.4643555h23.6220703Z"/>
    <path class="st2" d="M474.5759888,51.2206039h37.7441406c5.9052734,0,7.9589844,3.7661133,7.9589844,10.1850586v22.5947266c0,5.0498047-2.9951172,9.7568359-9.2431641,9.7568359h-23.9638672v13.0947266h-12.4960938v-55.6313477ZM507.954895,83.401268v-21.3110352h-20.8828125v21.3110352h20.8828125Z"/>
  </g>
  <g>
    <path class="st4" d="M69.0031052,121.8803253l6.516571,11.0999298c.7949982,1.3541412,2.3401718,2.0847473,3.8900452,1.832489,1.8372574-.2990265,3.676506-.6803894,5.5154724-1.1467285,1.8375702-.4659882,3.6371155-1.0074005,5.3956223-1.6202393,1.4826813-.5167236,2.4929886-1.8951416,2.5467834-3.4643707l.4410629-12.8654938s-24.3055573,6.1644211-24.3055573,6.1644135Z"/>
    <path class="st4" d="M38.4566879,112.877388l-.8685646,12.8421021c-.1059608,1.5666885.7591629,3.0407639,2.1818275,3.7054214,1.6864624.7878876,3.4209518,1.5088806,5.2030716,2.1595001,1.7807732.6501312,3.5726128,1.216507,5.3707886,1.7007599,1.5161324.4082794,3.1273766-.161499,4.0557976-1.4277344l7.6118126-10.3815155s-23.5547333-8.598526-23.5547333-8.5985336Z"/>
    <path class="st4" d="M18.2897301,88.2322083l-7.9518547,10.1213608c-.9700956,1.2347641-1.0856733,2.9400482-.2846231,4.2906265.949585,1.6010056,1.9765387,3.17379,3.0824871,4.7152557,1.105113,1.5403061,2.2665443,3.0176544,3.4794855,4.4307022,1.0226898,1.1914062,2.6749344,1.6282806,4.1553326,1.1050568l12.1372871-4.2897186-14.6181145-20.3732834Z"/>
    <path class="st4" d="M15.5109196,56.5066376l-12.271698,3.8832245c-1.4970996.4737396-2.5532148,1.8176041-2.652163,3.3847466-.1172958,1.8577309-.154766,3.7357292-.1093296,5.6323586.0454021,1.895195.1728006,3.7700958.3789824,5.6208801.173842,1.5604935,1.2928906,2.8521957,2.8107949,3.2538223l12.4447832,3.2928467s-.6013708-25.0678787-.6013699-25.0678787Z"/>
    <path class="st4" d="M31.085844,28.7300587l-12.3268509-3.7044239c-1.503828-.4519253-3.1334572.0634975-4.0980167,1.3025932-1.1434135,1.4688568-2.2322865,2.999424-3.2631512,4.592083-1.0300865,1.5914574-1.9809952,3.2123413-2.8532248,4.8576775-.7354202,1.3872643-.5384607,3.0849037.4894428,4.2718124l8.4274397,9.7310715s13.6243629-21.0508175,13.624361-21.0508137Z"/>
    <path class="st4" d="M59.6013336,14.5533247l-8.0981445-10.0047007c-.9879417-1.2205348-2.624752-1.712676-4.1197166-1.2322416-1.7721672.569519-3.5340385,1.2207484-5.2829552,1.9559588-1.7475967.7346549-3.4463501,1.5382257-5.0938721,2.406323-1.3891068.7319355-2.1826859,2.2455416-2.0020027,3.8052511l1.481369,12.7875347s23.1153221-9.7181244,23.1153221-9.7181253Z"/>
    <path class="st4" d="M91.1483078,18.903553l-1.0551529-12.8281193c-.1287231-1.564981-1.2038879-2.8936551-2.7097244-3.338845-1.7850571-.5277398-3.6076279-.9821641-5.4668121-1.3599056-1.8577805-.3774561-3.7140198-.6704567-5.5642853-.8812832-1.560051-.1777582-3.0683746.6258026-3.7977066,2.0162783l-5.9795074,11.4000421s24.5731888,4.9918346,24.5731888,4.9918327Z"/>
    <path class="st4" d="M114.7629547,40.268631l6.3545303-11.1934776c.7752304-1.3655605.6353531-3.0690231-.3580399-4.2851257-1.177597-1.441597-2.4274902-2.8437538-3.7508316-4.2031727-1.3223419-1.3583927-2.6909866-2.6461391-4.1009827-3.8626232-1.1888351-1.0256777-2.8877411-1.2114162-4.2736206-.4733963l-11.3623734,6.0507774,17.4913177,17.9670181Z"/>
  </g>
  <path class="st4" d="M88.446167,112.8919144c-2.3138428,1.0332336-4.7093735,1.8946838-7.1699142,2.5645447-5.7963486,1.5784683-11.9418259,2.1158905-18.1704788,1.4458084-2.0860481-.2231293-4.1791992-.5816193-6.273735-1.0820389s-4.1255341-1.1272278-6.0871811-1.8711777c-5.8587952-2.2177811-11.097641-5.4751053-15.5545578-9.5032349-3.16819-2.8628769-5.9404793-6.1149521-8.2570839-9.661232-3.3324509-5.096611-5.7255116-10.8005219-7.0029888-16.8278656-.8704281-4.1013641-1.2247944-8.3547287-1.0068684-12.6660004.1489677-3.0024261.5779171-6.0323524,1.3014507-9.0607224s1.7105694-5.9249916,2.9347744-8.6705208c1.7544708-3.9442062,3.9908695-7.5766144,6.6231689-10.8411407,3.8639984-4.7989235,8.5769234-8.8051338,13.8533592-11.8449516,3.6698494-2.1179886,7.6127739-3.7656422,11.7306099-4.8858643,5.7968369-1.5803223,11.9441986-2.1172981,18.1746216-1.446743,2.0861511.2231064,4.181076.582037,6.273735,1.0820179,2.094635.5004253,4.1236572,1.1267815,6.0853043,1.8707352,5.8588943,2.2177773,11.099617,5.4755459,15.5560379,9.5055561,3.1667099,2.8605843,5.939003,6.1126328,8.2552109,9.6607666.7364578,1.1262894,1.4242783,2.2838516,2.0671082,3.466423h7.288002c-1.1456757-2.4735146-2.4667587-4.8609543-3.9566345-7.1394768-2.6182938-4.0109444-5.7522507-7.6871834-9.3319244-10.9208794-5.0377884-4.5556412-10.9620895-8.2383404-17.5851593-10.7453976-2.217453-.8410044-4.5112762-1.5490484-6.8789825-2.1147575-2.3657379-.5651913-4.7338333-.970933-7.0920715-1.2231674-7.0431442-.757987-13.992363-.1509657-20.5452881,1.6354694-4.6548157,1.2663288-9.1121216,3.1289005-13.260643,5.5231476-5.9646492,3.4363327-11.2922897,7.9650917-15.6604118,13.3899536-2.9756165,3.6903419-5.5037365,7.7965393-7.4869881,12.2551804-1.3839254,3.1036453-2.499609,6.3780861-3.3175526,9.8014717-.8178453,3.4233856-1.3027325,6.8485222-1.4712343,10.2425575-.2463408,4.8736343.1541967,9.681778,1.1382751,14.3180923,1.4441042,6.8134995,4.1492109,13.2614288,7.9164305,19.0228271,2.6186848,4.0088272,5.7526417,7.6850586,9.3339958,10.9213715,5.0381851,4.5535431,10.9604149,8.2357254,17.5834846,10.7427826,2.217556.8410034,4.5133438,1.5495682,6.8811493,2.1152725,2.3677063.5656815,4.7338371.970932,7.0920753,1.2231445,7.0409698.757515,13.9880219.1499786,20.5404587-1.6343613,4.6575775-1.2679291,9.1147842-3.1305008,13.2633057-5.5247498,1.6611404-.9564514,3.2706909-2.0008621,4.8260803-3.1228333,0,0-12.6089325,0-12.6089401-.0000076Z"/>
</svg>