<?xml version="1.0" encoding="UTF-8"?>
<svg id="Layer_1" xmlns="http://www.w3.org/2000/svg" version="1.1" viewBox="0 0 520.279109 135.7292858">
  <!-- Generator: Adobe Illustrator 29.8.2, SVG Export Plug-In . SVG Version: 2.1.1 Build 3)  -->
  <defs>
    <style>
      .st0 {
        fill: #f58220;
      }

      .st1 {
        fill: #e31f26;
      }

      .st2 {
        fill: #fff;
      }

      .st3 {
        fill: #ffe600;
      }

      .st4 {
        fill: #f0503a;
      }
    </style>
  </defs>
  <polygon class="st2" points="110.1130997 71.6059749 110.1130997 71.6185972 82.842583 71.6185972 82.842583 66.0640651 119.6322254 66.0640651 119.6322254 51.2842389 72.8668661 51.2842389 67.3235545 56.8261487 67.3235545 80.8579209 72.8654642 86.3984287 105.3805243 86.3984287 105.3805243 91.9277108 97.0599466 91.9277108 111.4344073 106.7075397 115.3576431 106.7075397 121.7004758 101.164228 121.7004758 77.1478846 115.3576431 71.6059749 110.1130997 71.6059749"/>
  <polygon class="st2" points="59.0565642 91.9334628 59.0565642 69.7588143 64.0346041 69.7588143 64.0346041 51.284378 59.0565642 51.284378 59.0565642 32.0735431 43.5375356 32.0735431 43.5375356 51.284378 30.5657349 51.284378 30.5657349 66.1175081 34.207041 69.7588143 43.5375356 69.7588143 43.5375356 101.1643671 49.0808473 106.7076815 59.600797 106.7076815 59.600797 91.9334628 59.0565642 91.9334628"/>
  <polyline class="st2" points="59.2025801 106.707117 79.550968 106.707117 64.8693276 91.9272881 57.5811077 91.9272881"/>
  <polygon class="st1" points="89.9324731 106.707117 81.4674204 106.707117 66.9260439 91.9272881 75.3910965 91.9272881 89.9324731 106.707117"/>
  <polygon class="st0" points="99.9107155 106.707117 91.4456575 106.707117 76.9042863 91.9272881 85.3693389 91.9272881 99.9107155 106.707117"/>
  <polygon class="st3" points="109.888958 106.707117 101.4239 106.707117 86.8825288 91.9272881 95.3475867 91.9272881 109.888958 106.707117"/>
  <g>
    <path class="st2" d="M143.6272536,25.1854481h-7.3662109v-4.6083984h20.1020508v4.6083984h-7.4018555v18.9770508h-5.3339844v-18.9770508Z"/>
    <path class="st2" d="M158.4299879,20.5770497h5.3339844v9.6879883h9.796875v-9.6879883h5.2978516v23.5854492h-5.2978516v-9.3618164h-9.796875v9.3618164h-5.3339844v-23.5854492Z"/>
    <path class="st2" d="M182.2683669,20.5770497h17.6708984v4.4267578h-12.3369141v5.0800781h8.8173828v4.3540039h-8.8173828v5.2978516h12.3369141v4.4267578h-17.6708984v-23.5854492Z"/>
  </g>
  <g>
    <path class="st2" d="M154.1282301,62.0902332h-17.3740234v-10.8696289h47.4150391v10.8696289h-17.4599609v44.7617188h-12.5810547v-44.7617188Z"/>
    <path class="st2" d="M188.8777419,96.9237293v-36.8876953c0-6.1621094,3.5087891-8.8154297,8.9008789-8.8154297h30.6401367c6.6757812,0,8.7294922,4.1938477,8.7294922,11.1264648v33.9775391c0,5.5634766-3.6801758,10.5273438-10.4414062,10.5273438h-27.6445312c-5.5629883,0-10.1845703-2.9956055-10.1845703-9.9282227ZM224.8240309,95.8114247v-33.4643555h-23.6220703v33.4643555h23.6220703Z"/>
    <path class="st2" d="M256.5784254,106.851952v-21.9956055l-19.1713867-33.6357422h13.3515625l12.1533203,22.8515625h.1708984l12.324707-22.8515625h13.3515625l-19.5996094,33.6357422v21.9956055h-12.5810547Z"/>
    <path class="st2" d="M359.7991286,96.495995c0,6.2475586-3.6801758,10.355957-10.4414062,10.355957h-26.1040039c-5.4775391,0-10.0991211-2.9956055-10.0991211-9.9282227v-9.3286133h12.3242188v8.7294922h21.9956055v-8.9863281l-28.5-8.2163086c-4.4506836-1.3696289-5.8198242-3.7661133-5.8198242-8.7299805v-10.5268555c0-6.1625977,3.5087891-8.6445312,9.2431641-8.6445312h27.7299805c7.7026367,0,9.6713867,4.0224609,9.6713867,11.1264648v7.1889648h-12.324707v-7.8735352h-21.9956055v8.0449219l28.6713867,8.2163086c4.5361328,1.3691406,5.6489258,3.5947266,5.6489258,9.1577148v9.4145508Z"/>
    <path class="st2" d="M365.7063551,51.2206043h12.581543v22.8515625h23.1079102v-22.8515625h12.4956055v55.6313477h-12.4956055v-22.081543h-23.1079102v22.081543h-12.581543v-55.6313477Z"/>
    <path class="st2" d="M420.0564528,96.9237293v-36.8876953c0-6.1621094,3.5087891-8.8154297,8.9003906-8.8154297h30.640625c6.6757812,0,8.7294922,4.1938477,8.7294922,11.1264648v33.9775391c0,5.5634766-3.6796875,10.5273438-10.4414062,10.5273438h-27.6445312c-5.5634766,0-10.1845703-2.9956055-10.1845703-9.9282227ZM456.0027419,95.8114247v-33.4643555h-23.6220703v33.4643555h23.6220703Z"/>
    <path class="st2" d="M474.575984,51.2206043h37.7441406c5.9052734,0,7.9589844,3.7661133,7.9589844,10.1850586v22.5947266c0,5.0498047-2.9951172,9.7568359-9.2431641,9.7568359h-23.9638672v13.0947266h-12.4960938v-55.6313477ZM507.9548903,83.4012684v-21.3110352h-20.8828125v21.3110352h20.8828125Z"/>
  </g>
  <g>
    <path class="st4" d="M69.0031049,121.880325l6.5165729,11.0999223c.7949966,1.3541475,2.3401753,2.0847459,3.8900468,1.8324906,1.8372576-.2990298,3.6765078-.6803928,5.5154693-1.1467286,1.8375728-.4659837,3.637118-1.007393,5.3956224-1.6202442,1.4826816-.5167251,2.4929873-1.8951478,2.5467839-3.4643665l.44106-12.8654943-24.3055552,6.1644207Z"/>
    <path class="st4" d="M38.4566868,112.8773905l-.8685635,12.842102c-.1059614,1.5666867.7591644,3.0407654,2.1818287,3.7054161,1.6864629.787894,3.4209521,1.5088836,5.2030697,2.1595027,1.7807718.6501278,3.5726125,1.2165143,5.3707883,1.7007536,1.5161306.408286,3.1273774-.1614949,4.0557985-1.4277394l7.6118115-10.381512-23.5547333-8.598523Z"/>
    <path class="st4" d="M18.2897305,88.2322087l-7.9518544,10.1213637c-.9700954,1.2347671-1.0856731,2.9400509-.2846236,4.2906264.9495846,1.601007,1.9765389,3.1737891,3.0824869,4.7152584,1.1051127,1.5403053,2.2665441,3.0176556,3.4794851,4.4307014,1.0226902,1.1914085,2.6749339,1.6282811,4.1553324,1.1050589l12.1372879-4.289722-14.6181142-20.3732868Z"/>
    <path class="st4" d="M15.5109191,56.5066385l-12.2716979,3.8832238c-1.4970996.4737383-2.5532149,1.8176026-2.6521631,3.3847477-.1172958,1.8577341-.154766,3.7357317-.1093296,5.6323561.0454021,1.8951921.1728006,3.7700939.3789824,5.6208811.173842,1.5604898,1.2928906,2.8521929,2.8107948,3.2538247l12.4447845,3.2928434-.601371-25.0678769Z"/>
    <path class="st4" d="M31.0858443,28.7300589l-12.3268507-3.7044235c-1.503828-.4519253-3.1334572.0634966-4.0980164,1.3025932-1.1434132,1.468857-2.2322863,2.9994236-3.2631515,4.5920835-1.0300868,1.5914572-1.9809949,3.2123399-2.8532251,4.8576784-.7354202,1.3872659-.5384611,3.0849037.489443,4.2718133l8.4274389,9.7310717,13.6243619-21.0508167Z"/>
    <path class="st4" d="M59.6013318,14.5533249l-8.0981459-10.0047005c-.9879424-1.2205347-2.6247527-1.7126759-4.1197168-1.2322418-1.7721689.569519-3.534037,1.2207485-5.282955,1.9559587-1.7475974.7346551-3.4463503,1.5382256-5.0938729,2.4063233-1.3891074.7319359-2.1826855,2.2455411-2.0020013,3.8052508l1.4813689,12.7875341,23.1153232-9.7181246Z"/>
    <path class="st4" d="M91.1483059,18.9035536l-1.0551536-12.8281196c-.1287247-1.5649809-1.2038878-2.8936551-2.7097233-3.3388451-1.7850561-.5277397-3.6076305-.9821642-5.4668131-1.3599056-1.8577786-.3774561-3.7140216-.6704567-5.5642855-.8812832-1.5600486-.1777582-3.0683778.6258025-3.7977053,2.0162783l-5.9795101,11.4000413,24.5731909,4.991834Z"/>
    <path class="st4" d="M114.7629563,40.2686302l6.3545284-11.1934787c.7752278-1.365561.6353553-3.0690241-.3580399-4.2851247-1.1775962-1.4415969-2.4274913-2.8437528-3.7508307-4.2031723-1.3223401-1.3583929-2.6909869-2.6461402-4.1009838-3.862624-1.1888378-1.0256774-2.8877397-1.2114165-4.2736213-.4733964l-11.362375,6.0507778,17.4913222,17.9670182Z"/>
  </g>
  <path class="st4" d="M88.4461639,112.8919168c-2.3138423,1.0332331-4.7093705,1.8946841-7.1699121,2.564548-5.7963457,1.5784718-11.9418295,2.1158921-18.1704792,1.4458062-2.0860491-.2231318-4.1792013-.5816175-6.2737347-1.0820424s-4.1255333-1.1272262-6.0871791-1.8711796c-5.858794-2.2177775-11.0976431-5.475102-15.5545568-9.5032386-3.1681902-2.8628792-5.9404799-6.1149503-8.2570845-9.6612338-3.3324499-5.0966141-5.7255117-10.8005205-7.0029887-16.8278656-.8704285-4.1013629-1.2247954-8.3547278-1.0068677-12.6660028.1489683-3.002426.577918-6.0323519,1.30145-9.0607239s1.7105701-5.9249911,2.9347736-8.6705208c1.7544714-3.9442063,3.9908699-7.5766152,6.6231689-10.8411415,3.8640002-4.7989241,8.5769223-8.8051348,13.8533589-11.8449508,3.6698482-2.1179885,7.6127721-3.7656417,11.7306103-4.8858634,5.7968389-1.5803215,11.9441973-2.1172979,18.1746227-1.4467434,2.0861478.2231071,4.1810758.5820368,6.2737347,1.0820177,2.094632.5004249,4.1236589,1.1267822,6.0853047,1.8707357,5.8588926,2.2177775,11.0996162,5.4755459,15.5560366,9.505557,3.1667103,2.8605855,5.939,6.1126319,8.2552101,9.6607652.7364557,1.1262889,1.4242748,2.2838513,2.0671074,3.4664227h7.2880015c-1.1456745-2.4735146-2.4667568-4.8609532-3.9566368-7.1394772-2.6182901-4.0109461-5.7522471-7.6871822-9.3319251-10.9208789-5.0377913-4.5556422-10.9620918-8.2383402-17.5851621-10.7453973-2.2174569-.8410048-4.5112723-1.5490481-6.87898-2.1147576-2.3657346-.5651915-4.7338368-.9709328-7.0920737-1.2231676-7.0431411-.7579871-13.992363-.150966-20.54529,1.6354694-4.6548146,1.266329-9.1121229,3.128901-13.2606427,5.5231467-5.9646502,3.4363331-11.2922884,7.9650919-15.6604131,13.3899541-2.9756166,3.6903437-5.5037365,7.7965407-7.4869876,12.2551809-1.3839251,3.1036455-2.4996087,6.3780865-3.3175531,9.8014712-.8178457,3.4233846-1.3027325,6.8485204-1.4712343,10.2425554-.2463403,4.8736303.154197,9.6817786,1.1382755,14.3180955,1.4441044,6.8134981,4.1492104,13.261432,7.9164306,19.0228293,2.6186847,4.008825,5.7526417,7.6850611,9.3339969,10.9213722,5.0381859,4.5535458,10.9604147,8.2357258,17.583485,10.7427829,2.2175555.8410048,4.5133441,1.549566,6.8811504,2.1152755,2.3677077.5656848,4.7338368.9709328,7.0920737,1.223143,7.0409707.7575185,13.9880222.1499795,20.5404559-1.6343595,4.6575769-1.2679321,9.1147866-3.1305041,13.2633064-5.5247499,1.6611442-.9564552,3.2706922-2.000861,4.8260788-3.1228338h-12.6089312Z"/>
</svg>